<?xml version="1.0" encoding="UTF-8"?>
<svg id="Calque_1" xmlns="http://www.w3.org/2000/svg" version="1.1" viewBox="0 0 156 54">
  <!-- Generator: Adobe Illustrator 29.2.1, SVG Export Plug-In . SVG Version: 2.1.0 Build 116)  -->
  <defs>
    <style>
      .st0, .st1 {
        fill: #fff;
      }

      .st1 {
        font-family: Poppins-SemiBold, Poppins;
        font-size: 6.3px;
        font-weight: 600;
        letter-spacing: .4em;
      }

      .st2, .st3 {
        fill: #f90;
      }

      .st3 {
        font-family: Poppins-Black, Poppins;
        font-size: 12.1px;
        font-weight: 800;
        letter-spacing: 0em;
        stroke: #fff;
        stroke-miterlimit: 10;
      }
    </style>
  </defs>
  <text class="st3" transform="translate(37.4 39.7) rotate(-.2)"><tspan x="0" y="0">MASHAALLAH</tspan></text>
  <text class="st1" transform="translate(37.4 47.4) rotate(-.2)"><tspan x="0" y="0">BUSINESS SARLU</tspan></text>
  <rect class="st0" x="37.4" y="27.7" width="84.1" height="1"/>
  <rect class="st0" x="37.4" y="49.1" width="84.1" height="1"/>
  <g>
    <path class="st2" d="M77.9,21.6c0-.6,0-1.2.1-1.8l-1.3-.2s0,0,0,0c0-.7,0-1.3-.2-1.9l1.3-.5c-.2-.5-.3-1.1-.4-1.7l-1.4.2c-.2-.5-.4-1-.7-1.4l1.1-.9c-.4-.4-.7-.9-1-1.4l-1.3.7c-.3-.4-.7-.8-1.1-1.1l.7-1.3c-.5-.3-1-.6-1.4-1l-.9,1.1c-.5-.3-.9-.5-1.4-.7l.2-1.4c-.6,0-1.1-.2-1.7-.4l-.5,1.3c-.6-.1-1.2-.2-1.8-.2s0,0-.1,0l-.2-1.3c-.6,0-1.1.2-1.7.2v1.4c-.5.1-1,.3-1.5.4l-.7-1.2c-.5.3-1,.5-1.6.7l.5,1.4c-.4.3-.9.6-1.3.9l-1.1-.9c-.4.4-.8.8-1.2,1.2l1,1.1c-.3.4-.6.8-.9,1.3l-1.4-.5c-.2.5-.4,1.1-.7,1.6l1.2.7c-.2.5-.3,1-.4,1.6h-1.4c0,.6,0,1.1-.1,1.7l1.3.2s0,0,0,0c0,.6,0,1.3.2,1.9l-1.3.5c.2.5.3,1.1.4,1.7l1.4-.2c.2.5.4,1,.7,1.4l-1.1.9c.4.4.7.9,1,1.4l1.3-.7c.3.4.7.8,1.1,1.1l-.7,1.3c.5.3,1,.6,1.4,1l.9-1.1c.5.3.9.5,1.4.7l-.2,1.4c.6,0,1.1.2,1.7.4l.5-1.3c.6.1,1.2.2,1.9.2s0,0,.1,0l.2,1.3c.6,0,1.1-.1,1.7-.1v-1.4c.5-.1,1-.3,1.5-.4l.7,1.2c.5-.3,1-.5,1.6-.7l-.5-1.4c.4-.3.9-.6,1.3-.9l1.1.9c.4-.4.8-.8,1.2-1.2l-1-1.1c.3-.4.6-.8.9-1.3l1.4.5c.2-.5.4-1.1.7-1.6l-1.2-.7c.2-.5.3-1,.4-1.6h1.4ZM58.5,19.6c0-4.3,3.5-7.8,7.8-7.8s7.8,3.5,7.8,7.8-3.5,7.8-7.8,7.8-7.8-3.5-7.8-7.8Z"/>
    <path class="st0" d="M66.4,31.7l-.2-1.4c-.5,0-1,0-1.4-.1l-.5,1.4h-.3c-.5-.3-1.1-.5-1.6-.5h-.3c0,0,.3-1.5.3-1.5-.3-.1-.6-.3-.9-.4l-1,1.2-.3-.2c-.4-.4-.9-.7-1.4-.9l-.3-.2.8-1.3c-.2-.2-.5-.5-.7-.7l-1.3.8-.2-.3c-.3-.5-.6-.9-1-1.4l-.2-.3,1.2-1c-.2-.3-.3-.6-.4-.9l-1.5.3v-.3c-.2-.5-.3-1.1-.5-1.6v-.3c-.1,0,1.2-.5,1.2-.5,0-.5-.1-1-.1-1.4l-1.4-.2v-.3c.2-.5.2-1.1.2-1.7v-.4h1.4c0-.4.2-.7.3-1l-1.3-.7.2-.3c.3-.5.5-1,.7-1.5v-.3c.1,0,1.5.5,1.5.5.2-.3.4-.6.6-.8l-1-1.2.3-.2c.4-.4.8-.8,1.2-1.2l.2-.3,1.2,1c.3-.2.5-.4.8-.6l-.5-1.4h.3c.5-.3,1-.5,1.5-.8l.3-.2.8,1.3c.3-.1.7-.2,1-.3v-1.4s.3,0,.3,0c.6,0,1.1,0,1.7-.1h.3c0,0,.2,1.3.2,1.3.5,0,1,0,1.4.1l.5-1.4h.3c.5.3,1.1.4,1.6.5h.3c0,0-.3,1.5-.3,1.5.3.1.6.3.9.4l1-1.2.3.2c.4.4.9.7,1.4.9l.3.2-.8,1.3c.2.2.5.5.7.7l1.3-.8.2.3c.3.5.6.9,1,1.4l.2.3-1.2,1c.2.3.3.6.5.9l1.5-.3v.3c.2.5.3,1.1.5,1.6v.3c.1,0-1.2.5-1.2.5,0,.5.1,1,.1,1.4l1.4.2v.3c-.2.6-.2,1.1-.2,1.7v.4s-1.4,0-1.4,0c0,.4-.2.7-.3,1l1.3.7-.2.3c-.3.5-.5,1-.7,1.5v.3c-.1,0-1.5-.5-1.5-.5-.2.3-.4.6-.6.8l1,1.2-.3.2c-.4.4-.8.7-1.2,1.2l-.2.3-1.2-1c-.3.2-.5.4-.8.6l.5,1.4h-.3c-.5.3-1,.5-1.5.8l-.3.2-.7-1.3c-.3.1-.7.2-1,.3v1.4s-.4,0-.4,0c-.6,0-1.1,0-1.7.1h-.3ZM66.8,29.6l.2,1.3c.4,0,.7,0,1.1,0v-1.3s.3,0,.3,0c.5-.1,1-.2,1.5-.4h.3c0-.1.7,1.1.7,1.1.3-.2.6-.3,1-.5l-.5-1.3h.2c.4-.4.8-.7,1.2-1l.2-.2,1.1.9c.2-.3.5-.5.8-.8l-.9-1.1.2-.2c.3-.4.6-.8.9-1.2v-.2c.1,0,1.5.5,1.5.5.1-.3.3-.7.5-1l-1.2-.7v-.3c.3-.5.4-1,.5-1.5v-.3c0,0,1.4,0,1.4,0,0-.4,0-.7,0-1.1l-1.3-.2v-.3c0-.6,0-1.2-.2-1.9v-.3c0,0,1.2-.5,1.2-.5-.1-.3-.2-.7-.3-1l-1.3.2v-.3c-.3-.5-.5-.9-.8-1.4v-.3c-.1,0,.9-.9.9-.9-.2-.3-.4-.6-.6-.9l-1.2.7-.2-.2c-.3-.4-.7-.7-1.1-1l-.2-.2.7-1.2c-.3-.2-.6-.4-.9-.6l-.9,1.1h-.3c-.4-.4-.9-.6-1.4-.8h-.3c0-.1.2-1.4.2-1.4-.4,0-.7-.2-1-.3l-.5,1.3h-.3c-.6-.2-1.2-.2-1.8-.2h-.4s-.2-1.3-.2-1.3c-.4,0-.7,0-1.1,0v1.3s-.3,0-.3,0c-.5.1-1,.2-1.5.4h-.3c0,.1-.7-1.1-.7-1.1-.3.2-.6.3-1,.5l.5,1.3-.2.2c-.4.3-.8.5-1.2.9l-.2.2-1.1-.9c-.2.3-.5.5-.8.8l.9,1.1-.2.2c-.3.4-.6.8-.9,1.2v.2c-.1,0-1.5-.5-1.5-.5-.1.3-.3.7-.5,1l1.2.7v.3c-.3.5-.4,1-.5,1.5v.3h-1.4c0,.4,0,.7,0,1.1l1.3.2v.3c0,.6,0,1.2.2,1.8v.3c0,0-1.2.5-1.2.5.1.3.2.7.3,1l1.3-.2v.3c.3.5.5.9.8,1.4v.3c.1,0-.9.9-.9.9.2.3.4.6.6.9l1.2-.7.2.2c.3.4.7.7,1.1,1.1l.2.2-.7,1.2c.3.2.6.4.9.6l.9-1.1h.3c.4.4.9.6,1.4.8h.3c0,.1-.2,1.4-.2,1.4.4,0,.7.2,1,.3l.5-1.3h.3c.6.2,1.2.2,1.8.2h.4ZM66.4,27.7c-4.5,0-8.2-3.7-8.2-8.2s3.7-8.2,8.2-8.2,8.2,3.7,8.2,8.2-3.7,8.2-8.2,8.2ZM66.4,12.1c-4.1,0-7.5,3.4-7.5,7.5s3.4,7.5,7.5,7.5,7.5-3.4,7.5-7.5-3.4-7.5-7.5-7.5Z"/>
  </g>
  <g>
    <path class="st2" d="M107.9,11.5l-3,2.4c-.4,0-.6,0-1,0l-.9-1c0-.4,0-.7,0-1.1l3.3-3s-6.3-2.8-7.5,3.8l-.7,3.4-7.5,11v-14.4h0s0-1.3,0-1.3h0s0-.3,0-.3c0-.5.8-.9,1.8-.9s1.7.3,1.7.8v1.6s3.7,0,3.7,0V4.5h0s-1.6,0-1.6,0h0s-2,0-2,0v1.6c0,.4-1.2.8-1.7.8-.9,0-1.8-.4-1.8-.9v-1.6s-3.6,0-3.6,0c-4.2,0-7.6,3.4-7.6,7.6h1.6c0-4.8,5.3-4.3,5.3-2.5v16.4l-2.3-3.8.5-.3-1.1-1.8-2.6,1.6-6.4-10.6v-2.3c-.1,0-3-1.1-3-1.1l-1.1.7-.3,3.2,2,1.1,6.4,10.6-2.6,1.6,1.1,1.8.5-.3,1.1,1.8h9.2s2.3,0,2.3,0h0s5.6,0,5.6,0h0s6-9.8,6-9.8l5.7-.9-1-1.2s2.9-2.6,1.8-4.7Z"/>
    <path class="st0" d="M95.6,28.5h-17.4l-1-1.6-.5.3-1.5-2.5,2.6-1.6-6.1-10.2-2.1-1.2.3-3.6,1.4-.9,3.3,1.3v2.5c.1,0,6.3,10.2,6.3,10.2l2.6-1.6,1.5,2.5-.5.3,1.5,2.4v-15.1c0-.5-.7-.9-1.7-.9s-1.3,0-2,.7c-.6.6-1,1.5-1,2.7v.4h-2.3s0-.3,0-.3c0-2.1.8-4.1,2.3-5.6,1.5-1.5,3.5-2.3,5.6-2.4h3.9c0,0,0,1.9,0,1.9,0,.2.6.5,1.4.5s1.3-.3,1.4-.5v-1.9s4.4,0,4.4,0v8.8s-4.3,0-4.3,0v-1.9c-.1-.2-1-.5-1.4-.5-.9,0-1.4.4-1.4.5v1.9s0,0,0,0v12.9l6.8-10,.6-3.4c.4-2,1.3-3.4,2.7-4.2,2.4-1.2,5.3,0,5.4,0l.5.2-3.6,3.2v.8s.7.8.7.8h.8c0,0,3.2-2.5,3.2-2.5l.2.4c1,1.9-.9,4.2-1.6,4.9l1.1,1.5-6.1,1-6,9.8ZM90.5,27.8h4.7l6-9.8,5.3-.9-.8-1,.2-.2s2.3-2.1,1.8-3.9l-2.7,2.2h-1.3c0-.1-1.1-1.3-1.1-1.3v-1.4c0,0,3-2.7,3-2.7-.9-.3-2.7-.7-4.2.1-1.2.6-1.9,1.9-2.3,3.7l-.7,3.5-7.9,11.6ZM78.6,27.8h11.7V11.1c0-.7,1-1.2,2.1-1.2s2,.3,2.1,1.1h0s0,1.3,0,1.3h3s0-7.4,0-7.4h-3s0,1.3,0,1.3h0c0,.8-1.6,1.1-2.1,1.1-1,0-2.1-.4-2.1-1.2v-1.2s-3.2,0-3.2,0c-1.9,0-3.8.8-5.1,2.1-1.3,1.3-2,3-2.1,4.8h.9c0-1.2.5-2.2,1.2-2.8.6-.6,1.5-.9,2.4-.9,1.3,0,2.4.7,2.4,1.6v17.6l-3.1-5.2.5-.3-.7-1.2-2.6,1.6-6.6-10.9v-2.2c-.1,0-2.7-1-2.7-1l-.8.5-.2,2.7,1.8,1.1,6.6,11-2.6,1.6.7,1.2.5-.3,1.2,1.9Z"/>
  </g>
</svg>