<?xml version="1.0" encoding="UTF-8"?>
<svg id="Calque_1" xmlns="http://www.w3.org/2000/svg" version="1.1" viewBox="0 0 51 54">
  <!-- Generator: Adobe Illustrator 29.2.1, SVG Export Plug-In . SVG Version: 2.1.0 Build 116)  -->
  <defs>
    <style>
      .st0 {
        fill: none;
        stroke-width: 1.4px;
      }

      .st0, .st1 {
        stroke: #222;
        stroke-miterlimit: 10;
      }

      .st1 {
        fill: #fff;
        stroke-width: .9px;
      }
    </style>
  </defs>
  <rect class="st0" x="3.4" y="4.9" width="44.2" height="44.2" rx="4.4" ry="4.4"/>
  <path class="st1" d="M44.5,22.1l-3,2.4c-.4,0-.6,0-1.1,0l-.9-1c0-.4,0-.7,0-1.1l3.3-3s-6.4-2.8-7.6,3.9l-.7,3.5-7.6,11.1v-14.6h0s0-1.3,0-1.3h0s0-.3,0-.3c0-.5.8-.9,1.8-.9s1.7.3,1.8.8v1.6s3.7,0,3.7,0v-8.2h0s-1.6,0-1.6,0h0s-2.1,0-2.1,0v1.6c0,.5-1.3.8-1.7.8-.9,0-1.8-.4-1.8-.9v-1.6s-3.6,0-3.6,0c-4.2,0-7.7,3.5-7.7,7.7h1.6c0-4.8,5.4-4.3,5.4-2.5v16.6l-2.3-3.8.5-.3-1.1-1.9-2.6,1.6-6.4-10.7v-2.4c-.1,0-3.1-1.1-3.1-1.1l-1.1.7-.3,3.2,2,1.2,6.4,10.7-2.6,1.6,1.1,1.9.5-.3,1.1,1.8h9.3s2.3,0,2.3,0h0s5.6,0,5.6,0h0s6.1-9.9,6.1-9.9l5.8-.9-1-1.3s2.9-2.7,1.8-4.8Z"/>
</svg>