<?xml version="1.0" encoding="UTF-8"?>
<svg id="Calque_1" xmlns="http://www.w3.org/2000/svg" version="1.1" viewBox="0 0 156 54">
  <!-- Generator: Adobe Illustrator 29.2.1, SVG Export Plug-In . SVG Version: 2.1.0 Build 116)  -->
  <defs>
    <style>
      .st0 {
        font-family: Poppins-SemiBold, Poppins;
        font-size: 6.9px;
        font-weight: 600;
        letter-spacing: .4em;
      }

      .st0, .st1 {
        fill: #222;
      }

      .st2 {
        font-family: Poppins-Black, Poppins;
        font-size: 13.1px;
        font-weight: 800;
        letter-spacing: 0em;
        stroke: #222;
        stroke-miterlimit: 10;
      }

      .st2, .st3 {
        fill: #f90;
      }
    </style>
  </defs>
  <text class="st2" transform="translate(32.4 41) rotate(-.2)"><tspan x="0" y="0">MASHAALLAH</tspan></text>
  <text class="st0" transform="translate(32.4 49.4) rotate(-.2)"><tspan x="0" y="0">BUSINESS SARLU</tspan></text>
  <rect class="st1" x="32.4" y="28" width="91.2" height="1.1"/>
  <rect class="st1" x="32.4" y="51.2" width="91.2" height="1.1"/>
  <g>
    <path class="st3" d="M76.3,21.4c0-.6,0-1.3.2-1.9l-1.4-.2s0,0,0,0c0-.7,0-1.4-.2-2.1l1.4-.5c-.2-.6-.4-1.2-.5-1.8l-1.5.3c-.2-.5-.5-1-.7-1.5l1.2-1c-.4-.5-.8-1-1.1-1.5l-1.4.8c-.4-.4-.8-.8-1.2-1.2l.8-1.4c-.5-.3-1.1-.7-1.5-1.1l-1,1.2c-.5-.3-1-.5-1.5-.7l.3-1.5c-.6-.1-1.2-.3-1.8-.5l-.5,1.4c-.6-.1-1.3-.2-2-.2s0,0-.1,0l-.3-1.4c-.6.1-1.2.2-1.9.2v1.5c-.6.1-1.1.3-1.7.5l-.8-1.3c-.5.3-1.1.6-1.7.8l.5,1.5c-.5.3-.9.6-1.4,1l-1.2-1c-.4.5-.8.9-1.3,1.3l1,1.2c-.4.4-.7.9-1,1.4l-1.5-.5c-.2.6-.5,1.2-.8,1.7l1.3.8c-.2.5-.4,1.1-.5,1.7h-1.5c0,.6,0,1.2-.2,1.9l1.4.2s0,0,0,0c0,.7,0,1.4.2,2.1l-1.4.5c.2.6.4,1.2.5,1.8l1.5-.3c.2.5.5,1,.7,1.5l-1.2,1c.4.5.8,1,1.1,1.5l1.4-.8c.4.4.8.8,1.2,1.2l-.8,1.4c.5.3,1.1.7,1.5,1.1l1-1.2c.5.3,1,.5,1.5.7l-.3,1.5c.6.1,1.2.3,1.8.5l.5-1.4c.7.1,1.3.2,2,.2s0,0,.1,0l.3,1.4c.6-.1,1.2-.2,1.9-.2v-1.5c.6-.1,1.1-.3,1.7-.5l.8,1.3c.5-.3,1.1-.6,1.7-.8l-.5-1.5c.5-.3.9-.6,1.4-1l1.2,1c.4-.5.8-.9,1.3-1.3l-1-1.2c.4-.4.7-.9,1-1.4l1.5.5c.2-.6.5-1.1.8-1.7l-1.3-.8c.2-.5.4-1.1.5-1.7h1.5ZM55.3,19.2c0-4.7,3.8-8.5,8.5-8.5s8.5,3.8,8.5,8.5-3.8,8.5-8.5,8.5-8.5-3.8-8.5-8.5Z"/>
    <path class="st1" d="M63.8,32.3l-.3-1.5c-.5,0-1,0-1.6-.1l-.5,1.5h-.4c-.6-.3-1.1-.5-1.7-.6h-.4c0,0,.3-1.6.3-1.6-.3-.1-.7-.3-1-.5l-1.1,1.3-.3-.2c-.5-.4-1-.7-1.5-1l-.3-.2.8-1.4c-.3-.2-.5-.5-.8-.8l-1.4.8-.2-.3c-.3-.5-.6-1-1-1.5l-.2-.3,1.3-1.1c-.2-.3-.3-.7-.5-1l-1.6.3v-.4c-.2-.6-.3-1.2-.5-1.7v-.4c-.1,0,1.3-.5,1.3-.5,0-.5-.1-1-.1-1.6l-1.5-.3v-.4c.2-.6.2-1.2.2-1.8v-.4h1.5c0-.4.2-.8.3-1.1l-1.4-.8.2-.3c.3-.5.6-1.1.8-1.6v-.4c.1,0,1.7.6,1.7.6.2-.3.4-.6.6-.9l-1.1-1.3.3-.2c.5-.4.9-.8,1.3-1.3l.2-.3,1.3,1.1c.3-.2.6-.4.9-.6l-.6-1.5h.4c.6-.3,1.1-.6,1.6-.9l.3-.2.8,1.4c.4-.1.7-.2,1.1-.3v-1.5s.4,0,.4,0c.6,0,1.2,0,1.8-.2h.4c0,0,.3,1.4.3,1.4.5,0,1,0,1.6.1l.5-1.5h.4c.6.3,1.1.5,1.7.6h.4c0,0-.3,1.6-.3,1.6.3.1.7.3,1,.5l1.1-1.3.3.2c.5.4,1,.7,1.5,1l.3.2-.8,1.4c.3.2.5.5.8.8l1.4-.8.2.3c.3.5.7,1,1,1.5l.2.3-1.3,1.1c.2.3.3.7.5,1l1.6-.3v.4c.2.6.3,1.2.5,1.7v.4c.1,0-1.3.5-1.3.5,0,.5.1,1,.1,1.5l1.5.3v.4c-.2.6-.2,1.2-.2,1.8v.4s-1.5,0-1.5,0c0,.4-.2.8-.3,1.1l1.4.8-.2.3c-.3.5-.6,1.1-.8,1.6v.4c-.1,0-1.7-.6-1.7-.6-.2.3-.4.6-.6.9l1.1,1.3-.3.2c-.5.4-.9.8-1.3,1.3l-.2.3-1.3-1.1c-.3.2-.6.4-.9.6l.6,1.5h-.4c-.6.3-1.1.6-1.6.9l-.3.2-.8-1.4c-.4.1-.7.2-1.1.3v1.5s-.4,0-.4,0c-.6,0-1.2,0-1.8.2h-.4ZM64.2,30.1l.2,1.4c.4,0,.8,0,1.2-.1v-1.4s.3,0,.3,0c.6-.1,1.1-.3,1.6-.5h.3c0-.1.8,1.2.8,1.2.3-.2.7-.3,1.1-.5l-.5-1.4.3-.2c.5-.3.9-.6,1.3-.9l.2-.2,1.2,1c.3-.3.5-.6.8-.8l-1-1.2.2-.2c.3-.4.7-.9.9-1.3l.2-.3,1.4.5c.1-.4.3-.7.5-1.1l-1.3-.7v-.3c.3-.5.5-1.1.6-1.6v-.3c0,0,1.5,0,1.5,0,0-.4,0-.8.1-1.2l-1.4-.2v-.4c0-.7,0-1.3-.2-2v-.3c0,0,1.3-.5,1.3-.5-.1-.4-.2-.7-.3-1.1l-1.4.3v-.3c-.3-.5-.6-1-.8-1.5l-.2-.3,1.2-1c-.2-.3-.5-.6-.7-1l-1.3.8-.2-.2c-.4-.4-.7-.8-1.1-1.1l-.2-.2.8-1.3c-.3-.2-.7-.4-1-.7l-1,1.2-.3-.2c-.5-.3-1-.5-1.5-.7h-.3c0-.1.2-1.6.2-1.6-.4,0-.8-.2-1.1-.3l-.5,1.4h-.3c-.6-.2-1.3-.2-1.9-.2h-.5s-.2-1.4-.2-1.4c-.4,0-.8,0-1.2.1v1.4s-.3,0-.3,0c-.6.1-1.1.3-1.6.5h-.3c0,.1-.8-1.2-.8-1.2-.3.2-.7.3-1.1.5l.5,1.4-.3.2c-.5.3-.9.6-1.3.9l-.2.2-1.2-1c-.3.3-.5.6-.8.8l1,1.2-.2.2c-.3.4-.7.9-.9,1.3l-.2.3-1.4-.5c-.1.4-.3.7-.5,1.1l1.3.7v.3c-.3.5-.5,1.1-.6,1.6v.3h-1.5c0,.4,0,.8,0,1.2l1.4.2v.4c0,.7,0,1.3.2,2v.3c0,0-1.3.5-1.3.5.1.4.2.7.3,1.1l1.4-.3v.3c.3.5.6,1,.8,1.5l.2.3-1.2,1c.2.3.5.6.7,1l1.3-.8.2.2c.4.4.7.8,1.1,1.1l.2.2-.8,1.3c.3.2.6.4,1,.7l1-1.2.3.2c.5.3,1,.5,1.5.7h.3c0,.1-.3,1.6-.3,1.6.4,0,.8.2,1.1.3l.5-1.4h.3c.7.2,1.3.2,2,.2h.4ZM63.8,28.1c-4.9,0-8.9-4-8.9-8.9s4-8.9,8.9-8.9,8.9,4,8.9,8.9-4,8.9-8.9,8.9ZM63.8,11.1c-4.5,0-8.1,3.6-8.1,8.1s3.6,8.1,8.1,8.1,8.1-3.6,8.1-8.1-3.6-8.1-8.1-8.1Z"/>
  </g>
  <g>
    <path class="st3" d="M108.8,10.5l-3.2,2.6c-.4,0-.7,0-1.1,0l-1-1.1c0-.5,0-.7,0-1.2l3.6-3.2s-6.8-3-8.2,4.2l-.7,3.7-8.1,11.9v-15.6h0s0-1.4,0-1.4h0s0-.3,0-.3c0-.5.9-.9,1.9-.9s1.8.4,1.9.9v1.8s4,0,4,0V2.9h0s-1.8,0-1.8,0h0s-2.2,0-2.2,0v1.8c0,.5-1.4.9-1.9.9-1,0-1.9-.4-2-.9v-1.7s-3.9,0-3.9,0c-4.6,0-8.2,3.7-8.2,8.3h1.7c0-5.2,5.7-4.6,5.7-2.7v17.8l-2.5-4.1.5-.3-1.2-2-2.8,1.7-6.9-11.5v-2.5c-.1,0-3.3-1.2-3.3-1.2l-1.2.7-.3,3.4,2.1,1.2,6.9,11.5-2.8,1.7,1.2,2,.5-.3,1.2,1.9h10s2.4,0,2.4,0h0s6,0,6,0h0s6.5-10.6,6.5-10.6l6.2-1-1-1.3s3.1-2.8,1.9-5.1Z"/>
    <path class="st1" d="M95.5,28.9h-18.9l-1.1-1.8-.5.3-1.6-2.7,2.8-1.7-6.7-11.1-2.2-1.3.3-3.9,1.5-.9,3.6,1.4.2,2.7,6.7,11.1,2.8-1.7,1.6,2.7-.5.3,1.6,2.6V8.5c0-.5-.8-1-1.8-1s-1.4.1-2.1.8c-.7.7-1.1,1.6-1.1,2.9v.4h-2.5s0-.4,0-.4c0-4.8,3.8-8.6,8.6-8.7h4.3c0,0,0,2,0,2,0,.2.6.6,1.6.6s1.4-.3,1.5-.5v-2.1s4.7,0,4.7,0v9.5s-4.7,0-4.7,0v-2.1c-.1-.2-1-.5-1.5-.5-.9,0-1.5.4-1.6.6v2.1s0,0,0,0v14l7.4-10.8.7-3.6c.4-2.2,1.4-3.7,2.9-4.5,2.6-1.3,5.7,0,5.8,0l.5.2-3.9,3.5v.9s.7.9.7.9h.8c0,0,3.4-2.7,3.4-2.7l.2.4c1.1,2.1-1,4.5-1.7,5.3l1.2,1.6-6.6,1.1-6.5,10.7ZM90,28.1h5.1l6.5-10.6,5.7-.9-.9-1.1.3-.2s2.5-2.3,2-4.2l-2.9,2.3h-1.4c0-.1-1.2-1.4-1.2-1.4v-1.5c0,0,3.3-2.9,3.3-2.9-1-.3-3-.7-4.6.1-1.3.7-2.1,2-2.5,4l-.7,3.8-8.6,12.6ZM77.1,28.1h12.7V10c0-.8,1-1.3,2.3-1.3s2.1.4,2.3,1.2h0s0,1.4,0,1.4h3.2s0-8,0-8h-3.2s0,1.4,0,1.4h0c-.1.9-1.8,1.2-2.2,1.2-1.1,0-2.3-.5-2.3-1.3v-1.3s-3.5,0-3.5,0c-4.2,0-7.6,3.4-7.8,7.5h1c0-1.3.5-2.3,1.3-3.1.7-.7,1.6-1,2.7-1,1.5,0,2.6.8,2.6,1.8v19.1l-3.4-5.6.5-.3-.8-1.3-2.8,1.7-7.2-11.9v-2.4c-.1,0-2.9-1.1-2.9-1.1l-.9.5-.3,3,2,1.2,7.2,11.9-2.8,1.7.8,1.3.5-.3,1.3,2.1Z"/>
  </g>
</svg>